<svg width="257" height="122" viewBox="0 0 257 122" fill="none" xmlns="http://www.w3.org/2000/svg">
<path d="M89.6221 95.3203C90.696 95.3203 91.6435 95.5588 92.4639 96.0361C93.2991 96.5134 93.9478 97.1923 94.4102 98.0723C94.8875 98.9374 95.126 99.9593 95.126 101.138C95.126 102.316 94.8875 103.346 94.4102 104.226C93.9328 105.091 93.2767 105.762 92.4414 106.239C91.621 106.717 90.6736 106.955 89.5996 106.955C88.5406 106.955 87.5931 106.717 86.7578 106.239C85.9226 105.762 85.2663 105.091 84.7891 104.226C84.3117 103.346 84.0732 102.316 84.0732 101.138C84.0733 99.9593 84.3117 98.9374 84.7891 98.0723C85.2663 97.1923 85.9226 96.5134 86.7578 96.0361C87.5931 95.5588 88.5481 95.3203 89.6221 95.3203ZM243.097 95.3203C244.171 95.3203 245.118 95.5588 245.938 96.0361C246.774 96.5134 247.422 97.1923 247.885 98.0723C248.362 98.9374 248.602 99.9593 248.602 101.138C248.602 102.316 248.362 103.346 247.885 104.226C247.407 105.091 246.751 105.762 245.916 106.239C245.096 106.717 244.148 106.955 243.074 106.955C242.015 106.955 241.068 106.717 240.232 106.239C239.397 105.762 238.741 105.091 238.264 104.226C237.786 103.346 237.548 102.316 237.548 101.138C237.548 99.9593 237.786 98.9374 238.264 98.0723C238.741 97.1923 239.397 96.5134 240.232 96.0361C241.068 95.5588 242.023 95.3203 243.097 95.3203ZM12.8623 98.0938L16.1074 91.0234H18.6133V106.686H16.3535V95.543L13.8027 101.137H11.9229L9.37207 95.5654V106.686H7.1123V91.0234H9.61816L12.8623 98.0938ZM166.337 98.0938L169.582 91.0234H172.088V106.686H169.828V95.543L167.277 101.137H165.397L162.847 95.5654V106.686H160.587V91.0234H163.093L166.337 98.0938ZM89.6221 97.5801C89.0553 97.5801 88.533 97.7074 88.0557 97.9609C87.5785 98.2145 87.1908 98.6021 86.8926 99.124C86.6092 99.6461 86.4678 100.317 86.4678 101.138C86.4678 102.361 86.7733 103.263 87.3848 103.845C88.0112 104.411 88.7495 104.695 89.5996 104.695C90.1663 104.695 90.6887 104.569 91.166 104.315C91.6433 104.062 92.0242 103.673 92.3076 103.151C92.6058 102.614 92.7549 101.943 92.7549 101.138C92.7549 100.317 92.6059 99.6461 92.3076 99.124C92.0242 98.602 91.6433 98.2145 91.166 97.9609C90.7036 97.7074 90.1889 97.5801 89.6221 97.5801ZM243.097 97.5801C242.53 97.5801 242.008 97.7074 241.53 97.9609C241.053 98.2145 240.665 98.6021 240.367 99.124C240.084 99.6461 239.942 100.317 239.942 101.138C239.942 102.361 240.248 103.263 240.859 103.845C241.486 104.412 242.224 104.695 243.074 104.695C243.641 104.695 244.163 104.569 244.641 104.315C245.118 104.062 245.499 103.673 245.782 103.151C246.08 102.614 246.229 101.943 246.229 101.138C246.229 100.317 246.08 99.6461 245.782 99.124C245.499 98.602 245.118 98.2145 244.641 97.9609C244.178 97.7074 243.664 97.5801 243.097 97.5801ZM53.6318 99C54.5327 99.0002 55.2627 99.7309 55.2627 100.632C55.2625 101.533 54.5326 102.263 53.6318 102.263C52.7309 102.263 52.0002 101.533 52 100.632C52 99.7308 52.7308 99 53.6318 99ZM128.681 99C129.582 99.0002 130.312 99.7309 130.312 100.632C130.311 101.533 129.581 102.263 128.681 102.263C127.78 102.263 127.049 101.533 127.049 100.632C127.049 99.7308 127.78 99 128.681 99ZM208.857 99C209.758 99.0002 210.488 99.7309 210.488 100.632C210.488 101.533 209.758 102.263 208.857 102.263C207.956 102.263 207.226 101.533 207.226 100.632C207.226 99.7308 207.956 99 208.857 99ZM216.936 17.2422C218.626 17.004 220.4 16.8848 222.257 16.8848C227.994 16.8848 232.937 18.0216 237.086 20.2949C241.235 22.5684 244.437 25.8409 246.69 30.1123C248.944 34.3837 250.071 39.4478 250.071 45.3037C250.071 51.2283 248.944 56.2917 246.69 60.4941C244.437 64.7655 241.235 68.038 237.086 70.3115C232.937 72.585 227.994 73.7217 222.257 73.7217C220.4 73.7217 218.626 73.6025 216.936 73.3643V85.5625L115.354 86.1514V86.1719H111.845L111.001 86.1768L111 86.1719H7V70.5381H84.0859L45.3877 52.8916V39.8896L83.9307 22.2432H7V6.60938H108.582V6.60449L216.936 6V17.2422ZM148.933 53.1777C148.37 55.8531 147.498 58.2918 146.317 60.4941C144.187 64.5312 141.211 67.6764 137.388 69.9287H185.668L148.933 53.1777ZM121.884 28.0459C115.379 28.046 110.384 29.5961 106.901 32.6963C103.47 35.8654 101.754 40.068 101.754 45.3037C101.754 50.4705 103.47 54.6386 106.901 57.8076C110.384 60.9767 115.379 62.5614 121.884 62.5615C128.389 62.5615 133.358 60.9767 136.79 57.8076C140.273 54.6386 142.015 50.4706 142.015 45.3037C142.015 40.0679 140.273 35.8654 136.79 32.6963C133.358 29.5961 128.389 28.0459 121.884 28.0459ZM222.257 28.0459C215.752 28.046 210.757 29.5962 207.274 32.6963C203.843 35.8654 202.127 40.068 202.127 45.3037C202.127 50.4705 203.843 54.6386 207.274 57.8076C210.757 60.9766 215.752 62.5614 222.257 62.5615C228.762 62.5615 233.731 60.9767 237.163 57.8076C240.646 54.6386 242.388 50.4706 242.388 45.3037C242.388 40.0679 240.646 35.8654 237.163 32.6963C233.731 29.5961 228.762 28.0459 222.257 28.0459ZM66.4395 46.3906L97.54 60.6611C97.5103 60.6057 97.4806 60.5499 97.4512 60.4941C95.1975 56.2917 94.0704 51.2284 94.0703 45.3037C94.0703 40.5924 94.8 36.3937 96.2588 32.708L66.4395 46.3906ZM168.021 45.7812L197.154 59.1494C195.347 55.2249 194.443 50.6095 194.443 45.3037C194.443 40.5641 195.182 36.3432 196.658 32.6416L168.021 45.7812ZM138.882 21.6338C141.995 23.7911 144.473 26.6174 146.317 30.1123C147.619 32.5796 148.545 35.3117 149.095 38.3076L185.513 21.6338H138.882Z" fill="white"/>
</svg>
